<?xml version="1.0" encoding="utf-8"?>
<!-- Svg Vector Icons : http://www.onlinewebfonts.com/icon -->
<!DOCTYPE svg PUBLIC "-//W3C//DTD SVG 1.1//EN" "http://www.w3.org/Graphics/SVG/1.1/DTD/svg11.dtd">
<svg version="1.1" xmlns="http://www.w3.org/2000/svg" xmlns:xlink="http://www.w3.org/1999/xlink" x="0px" y="0px" viewBox="0 0 1000 1000" enable-background="new 0 0 1000 1000" xml:space="preserve">
<metadata> Svg Vector Icons : http://www.onlinewebfonts.com/icon </metadata>
<g><g transform="translate(0.000000,511.000000) scale(0.100000,-0.100000)"><path d="M4481.7,3045.6c-1696.9-102.4-3235.1-762.7-3938.9-1694.3C228,936.6,100,570.6,100,104.8c0-586.1,215-1054.5,711.5-1548.5C2185.9-2810.4,5193.2-3258.3,7507-2439.2c1251.6,440.2,2111.5,1205.5,2347,2083.3c61.4,225.2,61.4,696.2,0,921.4c-243.1,906-1151.7,1686.7-2462.1,2121.8c-639.8,212.4-1195.3,314.8-1934.9,360.9C5001.3,3076.3,4962.9,3076.3,4481.7,3045.6z M5943.1,2600.2c1776.2-227.8,3155.8-1036.6,3488.5-2045c48.6-148.5,58.9-235.5,56.3-463.3c0-325-48.6-499.1-220.2-793.4c-135.6-232.9-555.4-650.1-839.5-836.9c-1105.7-726.9-2754-1046.8-4376.6-849.7C1935.1-2129.6,414.8-1021.3,501.8,202.1c25.6,396.7,199.6,747.4,545.2,1105.7c737.1,765.3,1986.1,1236.2,3542.2,1341.1C4850.3,2666.8,5643.7,2638.6,5943.1,2600.2z"/></g></g>
</svg>