<svg xmlns="http://www.w3.org/2000/svg" xmlns:xlink="http://www.w3.org/1999/xlink" xmlns:svgjs="http://svgjs.com/svgjs" version="1.1" width="512" height="512" x="0" y="0" viewBox="0 0 24 24" style="enable-background:new 0 0 512 512" xml:space="preserve" class=""><g transform="matrix(0.990000000000001,0,0,0.990000000000001,0.12000328779219771,0.10500327587127423)"><path fill="#ffffff" fill-rule="evenodd" d="M7.53 3.47a.75.75 0 0 1 0 1.06L5.81 6.25h9.226c.904 0 1.633 0 2.222.053.606.055 1.136.172 1.617.45a3.75 3.75 0 0 1 1.373 1.372c.277.481.394 1.011.449 1.617.053.589.053 1.318.053 2.222v.072c0 .904 0 1.633-.053 2.222-.055.606-.171 1.136-.45 1.617a3.75 3.75 0 0 1-1.372 1.373c-.481.277-1.011.394-1.617.449-.589.053-1.318.053-2.222.053H8a.75.75 0 0 1 0-1.5h7c.948 0 1.61 0 2.122-.047.502-.046.788-.13 1.003-.254a2.25 2.25 0 0 0 .824-.824c.124-.215.208-.5.254-1.003.046-.512.047-1.174.047-2.122s0-1.61-.047-2.122c-.046-.503-.13-.788-.254-1.003a2.25 2.25 0 0 0-.824-.824c-.215-.124-.5-.208-1.003-.254-.512-.046-1.174-.047-2.122-.047H5.81l1.72 1.72a.75.75 0 1 1-1.06 1.06l-3-3a.75.75 0 0 1 0-1.06l3-3a.75.75 0 0 1 1.06 0z" clip-rule="evenodd" data-original="#000000" class=""/></g></svg>