<svg width="24" height="24" viewBox="0 0 24 24" fill="none" xmlns="http://www.w3.org/2000/svg">
<path fill-rule="evenodd" clip-rule="evenodd" d="M9 20C11.7614 20 14 17.7614 14 15C14 12.2386 11.7614 10 9 10C6.23858 10 4 12.2386 4 15C4 17.7614 6.23858 20 9 20ZM9 22C12.866 22 16 18.866 16 15C16 11.134 12.866 8 9 8C5.13401 8 2 11.134 2 15C2 18.866 5.13401 22 9 22Z" fill="#F2F2F2"/>
<path fill-rule="evenodd" clip-rule="evenodd" d="M14.9996 4C13.5188 4 12.1895 4.6424 11.2725 5.66691C10.9042 6.07844 10.272 6.11346 9.86044 5.74513C9.44891 5.37681 9.41389 4.74461 9.78222 4.33309C11.0625 2.9026 12.9263 2 14.9996 2C18.8656 2 21.9996 5.13401 21.9996 9C21.9996 11.0733 21.097 12.937 19.6665 14.2173C19.255 14.5857 18.6228 14.5507 18.2544 14.1391C17.8861 13.7276 17.9211 13.0954 18.3327 12.7271C19.3572 11.8101 19.9996 10.4807 19.9996 9C19.9996 6.23858 17.761 4 14.9996 4Z" fill="#F2F2F2"/>
</svg>
