<svg width="25" height="24" viewBox="0 0 25 24" fill="none" xmlns="http://www.w3.org/2000/svg">
<path fill-rule="evenodd" clip-rule="evenodd" d="M1.96447 15.4645C2.90215 14.5268 4.17392 14 5.5 14H13.5C14.8261 14 16.0979 14.5268 17.0355 15.4645C17.9732 16.4021 18.5 17.6739 18.5 19V21C18.5 21.5523 18.0523 22 17.5 22C16.9477 22 16.5 21.5523 16.5 21V19C16.5 18.2044 16.1839 17.4413 15.6213 16.8787C15.0587 16.3161 14.2956 16 13.5 16H5.5C4.70435 16 3.94129 16.3161 3.37868 16.8787C2.81607 17.4413 2.5 18.2044 2.5 19V21C2.5 21.5523 2.05228 22 1.5 22C0.947715 22 0.5 21.5523 0.5 21V19C0.5 17.6739 1.02678 16.4021 1.96447 15.4645Z" fill="#F2F2F2"/>
<path fill-rule="evenodd" clip-rule="evenodd" d="M9.5 4C7.84315 4 6.5 5.34315 6.5 7C6.5 8.65685 7.84315 10 9.5 10C11.1569 10 12.5 8.65685 12.5 7C12.5 5.34315 11.1569 4 9.5 4ZM4.5 7C4.5 4.23858 6.73858 2 9.5 2C12.2614 2 14.5 4.23858 14.5 7C14.5 9.76142 12.2614 12 9.5 12C6.73858 12 4.5 9.76142 4.5 7Z" fill="#F2F2F2"/>
<path fill-rule="evenodd" clip-rule="evenodd" d="M19.532 14.8791C19.6701 14.3444 20.2155 14.0228 20.7502 14.1609C21.8229 14.4379 22.7732 15.0632 23.4519 15.9388C24.1307 16.8144 24.4994 17.8906 24.5002 18.9984L24.5002 20.9991C24.5002 21.5514 24.0525 21.9991 23.5002 21.9991C22.948 21.9991 22.5002 21.5514 22.5002 20.9991L22.5002 18.9999C22.5002 18.9998 22.5002 19 22.5002 18.9999C22.4997 18.3353 22.2784 17.6894 21.8713 17.1641C21.464 16.6388 20.8938 16.2636 20.2502 16.0974C19.7155 15.9593 19.3939 15.4139 19.532 14.8791Z" fill="#F2F2F2"/>
<path fill-rule="evenodd" clip-rule="evenodd" d="M15.5315 2.88111C15.6685 2.34608 16.2133 2.02341 16.7483 2.1604C17.8238 2.43577 18.7771 3.06127 19.4578 3.93828C20.1386 4.8153 20.5081 5.89393 20.5081 7.00415C20.5081 8.11436 20.1386 9.193 19.4578 10.07C18.7771 10.947 17.8238 11.5725 16.7483 11.8479C16.2133 11.9849 15.6685 11.6622 15.5315 11.1272C15.3945 10.5922 15.7172 10.0474 16.2522 9.9104C16.8975 9.74517 17.4695 9.36987 17.8779 8.84366C18.2864 8.31746 18.5081 7.67027 18.5081 7.00415C18.5081 6.33802 18.2864 5.69084 17.8779 5.16463C17.4695 4.63842 16.8975 4.26312 16.2522 4.0979C15.7172 3.96091 15.3945 3.41613 15.5315 2.88111Z" fill="#F2F2F2"/>
</svg>
