<svg width="24" height="18" viewBox="0 0 24 18" fill="none" xmlns="http://www.w3.org/2000/svg">
<path d="M16.5 18V16C16.5 14.9391 16.0786 13.9217 15.3284 13.1716C14.5783 12.4214 13.5609 12 12.5 12H4.5C3.43913 12 2.42172 12.4214 1.67157 13.1716C0.921427 13.9217 0.5 14.9391 0.5 16V18H16.5Z" fill="#F2F2F2"/>
<path d="M8.5 8C10.7091 8 12.5 6.20914 12.5 4C12.5 1.79086 10.7091 0 8.5 0C6.29086 0 4.5 1.79086 4.5 4C4.5 6.20914 6.29086 8 8.5 8Z" fill="#F2F2F2"/>
<path d="M18.5 18V16C18.5 14.5203 17.9534 13.097 16.9721 12H19.5C20.5609 12 21.5783 12.4214 22.3284 13.1716C23.0786 13.9217 23.5 14.9391 23.5 16V18H18.5Z" fill="#F2F2F2"/>
<path d="M12.5 12H11.5C10.4391 12 9.42172 12.4214 8.67157 13.1716C7.92143 13.9217 7.5 14.9391 7.5 16V18H16.5V16C16.5 14.9391 16.0786 13.9217 15.3284 13.1716C14.5783 12.4214 13.5609 12 12.5 12Z" fill="#F2F2F2"/>
<path d="M13.4287 7.42263C14.0329 7.78905 14.7418 8 15.5 8C17.7091 8 19.5 6.20914 19.5 4C19.5 1.79086 17.7091 0 15.5 0C14.7418 0 14.0329 0.210954 13.4287 0.577371C14.1041 1.5481 14.5 2.72781 14.5 4C14.5 5.27219 14.1041 6.4519 13.4287 7.42263Z" fill="#F2F2F2"/>
<path d="M12 5.938C12.3186 5.36388 12.5 4.70313 12.5 4C12.5 3.29687 12.3186 2.63612 12 2.062C11.6814 2.63612 11.5 3.29687 11.5 4C11.5 4.70313 11.6814 5.36388 12 5.938Z" fill="#F2F2F2"/>
</svg>
